<?xml version="1.0" standalone="no"?>
<!DOCTYPE svg PUBLIC "-//W3C//DTD SVG 20010904//EN"
 "http://www.w3.org/TR/2001/REC-SVG-20010904/DTD/svg10.dtd">
<svg version="1.0" xmlns="http://www.w3.org/2000/svg"
 width="683.000000pt" height="668.000000pt" viewBox="0 0 683.000000 668.000000"
 preserveAspectRatio="xMidYMid meet">

<g transform="translate(0.000000,668.000000) scale(0.100000,-0.100000)"
fill="#000000" stroke="none">
<path d="M1291 5012 c-21 -30 -21 -36 -21 -616 l0 -586 305 0 305 0 0 303 c0
286 1 305 19 321 16 15 36 17 137 13 124 -5 233 -20 243 -34 3 -4 18 -14 34
-22 46 -24 96 -111 109 -188 13 -79 15 -325 4 -366 l-8 -27 318 2 319 3 3 209
c1 115 -2 237 -7 270 -14 89 -30 158 -40 181 -5 11 -24 51 -41 89 -17 39 -47
93 -67 120 -38 52 -166 186 -178 186 -4 0 -24 13 -44 28 -20 15 -65 40 -101
56 -36 16 -72 32 -81 37 -9 4 -34 11 -55 15 -22 3 -45 12 -53 18 -10 8 -173
12 -546 14 l-533 3 -21 -29z"/>
<path d="M3679 5033 c-10 -2 -20 -14 -23 -26 -3 -12 -6 -286 -6 -609 l0 -588
330 0 331 0 -3 601 c-3 581 -4 601 -22 615 -16 11 -73 14 -305 13 -157 -1
-293 -3 -302 -6z"/>
<path d="M4923 5025 c-47 -33 -53 -89 -55 -536 -2 -289 -6 -420 -14 -430 -6
-8 -14 -34 -18 -59 -4 -25 -22 -76 -41 -115 l-34 -70 351 -3 c193 -1 353 0
355 2 10 9 36 116 45 181 5 39 14 78 19 87 5 10 9 213 9 459 0 438 -2 470 -34
491 -6 4 -135 8 -286 8 -228 0 -279 -3 -297 -15z"/>
<path d="M940 3775 c0 -13 279 -15 2450 -15 2171 0 2450 2 2450 15 0 13 -279
15 -2450 15 -2171 0 -2450 -2 -2450 -15z"/>
<path d="M2014 3416 c-54 -29 -54 -31 -54 -167 0 -122 1 -129 20 -129 19 0 20
7 20 119 0 97 3 123 16 136 14 14 19 14 38 2 19 -13 21 -25 24 -136 2 -97 5
-121 17 -121 12 0 15 25 17 128 l3 127 33 3 32 3 0 -130 c0 -124 1 -131 20
-131 19 0 20 7 20 128 0 70 -4 133 -9 140 -14 23 -63 44 -75 32 -13 -13 -73
-13 -81 0 -7 12 -14 12 -41 -4z"/>
<path d="M2572 3415 c-46 -25 -51 -43 -52 -172 0 -116 1 -123 20 -123 15 0 20
7 20 29 0 20 6 32 19 36 31 9 51 -5 51 -36 0 -22 5 -29 20 -29 19 0 20 7 20
128 0 70 -4 132 -8 137 -7 11 -59 46 -64 44 -2 -1 -13 -7 -26 -14z m58 -115
c0 -74 -7 -85 -46 -76 -22 6 -24 11 -24 70 0 74 17 103 51 86 16 -9 19 -22 19
-80z"/>
<path d="M3024 3415 c-53 -27 -54 -30 -54 -166 0 -122 1 -129 20 -129 19 0 20
7 20 125 0 113 2 125 19 135 15 7 23 6 35 -6 13 -12 16 -40 16 -135 0 -112 1
-119 20 -119 19 0 20 7 20 128 0 111 -2 131 -17 143 -37 30 -57 36 -79 24z"/>
<path d="M3460 3412 c-14 -9 -28 -21 -32 -27 -4 -5 -8 -67 -8 -137 0 -105 3
-128 14 -128 8 0 16 12 18 26 2 15 11 32 21 38 24 15 51 -3 55 -38 2 -14 10
-26 18 -26 11 0 14 23 14 128 0 70 -4 133 -9 140 -6 11 -59 44 -65 41 0 0 -12
-8 -26 -17z m64 -54 c3 -13 6 -44 6 -69 0 -54 -17 -74 -55 -65 -23 6 -25 11
-25 65 0 77 6 91 40 91 20 0 29 -6 34 -22z"/>
<path d="M3897 3413 c-40 -21 -49 -54 -45 -165 3 -107 11 -123 63 -134 22 -4
38 0 58 16 24 19 27 28 27 81 0 59 0 59 -30 59 -32 0 -42 -23 -15 -34 18 -7
20 -57 3 -74 -7 -7 -22 -12 -35 -12 -23 0 -23 2 -23 115 l0 115 30 0 c23 0 31
-5 36 -25 9 -34 34 -32 34 3 0 20 -9 33 -35 50 -19 12 -36 22 -37 21 -2 -1
-16 -8 -31 -16z"/>
<path d="M4300 3260 l0 -150 65 0 c58 0 65 2 65 20 0 17 -7 20 -45 20 l-45 0
0 44 c0 43 1 45 32 48 22 2 34 9 36 21 3 14 -4 17 -32 17 -36 0 -36 0 -36 45
l0 45 45 0 c38 0 45 3 45 20 0 18 -7 20 -65 20 l-65 0 0 -150z"/>
<path d="M4710 3265 l0 -145 25 0 c24 0 25 3 25 60 0 45 3 60 14 60 24 0 56
-50 56 -86 0 -24 5 -34 15 -34 19 0 21 67 3 105 -9 19 -9 28 0 37 13 13 16 96
4 114 -14 21 -51 34 -96 34 l-46 0 0 -145z m109 91 c7 -8 11 -30 9 -48 -3 -29
-7 -33 -35 -36 l-33 -3 0 50 c0 47 2 51 24 51 13 0 29 -6 35 -14z"/>
<path d="M940 2745 c0 -13 25 -15 165 -15 l165 0 0 -581 c0 -575 0 -581 21
-611 l21 -29 552 4 c531 4 554 5 621 25 39 12 86 29 105 38 74 33 105 49 108
57 2 4 8 7 13 7 14 0 66 37 128 89 126 108 239 297 257 433 4 27 11 51 15 54
5 3 9 120 9 260 l0 254 265 0 265 0 0 -590 c0 -577 0 -590 20 -610 19 -19 33
-20 308 -20 233 0 292 3 308 14 18 14 19 34 22 610 l3 596 238 0 239 0 21 -35
c11 -20 24 -47 27 -60 3 -14 10 -25 14 -25 5 0 12 -21 16 -47 3 -27 10 -53 14
-58 20 -25 34 -229 39 -573 l6 -374 29 -24 28 -25 277 3 c258 3 279 4 297 22
18 18 19 39 22 375 3 427 -11 619 -54 749 -25 76 -33 72 151 72 140 0 165 2
165 15 0 13 -279 15 -2450 15 -2171 0 -2450 -2 -2450 -15z m1508 -232 c-2
-162 -6 -217 -15 -221 -7 -2 -13 -12 -13 -21 0 -10 -8 -27 -17 -39 -10 -12
-27 -32 -38 -46 -11 -14 -26 -25 -32 -26 -7 0 -13 -4 -13 -10 0 -5 -6 -10 -12
-10 -7 0 -26 -8 -43 -17 -25 -14 -61 -17 -205 -17 l-175 -1 -3 300 c-1 165 0
305 3 312 3 10 69 13 285 13 l281 0 -3 -217z"/>
</g>
</svg>
